<mxfile host="app.diagrams.net" agent="Mozilla/5.0 (Windows NT 10.0; Win64; x64) AppleWebKit/537.36 (KHTML, like Gecko) Chrome/140.0.0.0 Safari/537.36" version="28.2.5">
  <diagram name="Page-1" id="GuNkPZP-iSj67hMgEH_G">
    <mxGraphModel dx="1026" dy="706" grid="1" gridSize="10" guides="1" tooltips="1" connect="1" arrows="1" fold="1" page="1" pageScale="1" pageWidth="850" pageHeight="1100" math="0" shadow="0">
      <root>
        <mxCell id="0" />
        <mxCell id="1" parent="0" />
        <mxCell id="5fcYesd38pWkmHz6zSUJ-1" value="Person" style="swimlane;fontStyle=1;align=center;verticalAlign=top;childLayout=stackLayout;horizontal=1;startSize=26;horizontalStack=0;resizeParent=1;resizeLast=0;collapsible=1;marginBottom=0;rounded=0;shadow=0;strokeWidth=1;" vertex="1" parent="1">
          <mxGeometry x="220" y="370" width="250" height="190" as="geometry">
            <mxRectangle x="230" y="140" width="160" height="26" as="alternateBounds" />
          </mxGeometry>
        </mxCell>
        <mxCell id="5fcYesd38pWkmHz6zSUJ-2" value="- nama: String" style="text;align=left;verticalAlign=top;spacingLeft=4;spacingRight=4;overflow=hidden;rotatable=0;points=[[0,0.5],[1,0.5]];portConstraint=eastwest;" vertex="1" parent="5fcYesd38pWkmHz6zSUJ-1">
          <mxGeometry y="26" width="250" height="26" as="geometry" />
        </mxCell>
        <mxCell id="5fcYesd38pWkmHz6zSUJ-4" value="- nomorHp: String" style="text;align=left;verticalAlign=top;spacingLeft=4;spacingRight=4;overflow=hidden;rotatable=0;points=[[0,0.5],[1,0.5]];portConstraint=eastwest;" vertex="1" parent="5fcYesd38pWkmHz6zSUJ-1">
          <mxGeometry y="52" width="250" height="26" as="geometry" />
        </mxCell>
        <mxCell id="5fcYesd38pWkmHz6zSUJ-3" value="" style="line;html=1;strokeWidth=1;align=left;verticalAlign=middle;spacingTop=-1;spacingLeft=3;spacingRight=3;rotatable=0;labelPosition=right;points=[];portConstraint=eastwest;" vertex="1" parent="5fcYesd38pWkmHz6zSUJ-1">
          <mxGeometry y="78" width="250" height="8" as="geometry" />
        </mxCell>
        <mxCell id="5fcYesd38pWkmHz6zSUJ-5" value="+ getNama: String" style="text;align=left;verticalAlign=top;spacingLeft=4;spacingRight=4;overflow=hidden;rotatable=0;points=[[0,0.5],[1,0.5]];portConstraint=eastwest;" vertex="1" parent="5fcYesd38pWkmHz6zSUJ-1">
          <mxGeometry y="86" width="250" height="26" as="geometry" />
        </mxCell>
        <mxCell id="5fcYesd38pWkmHz6zSUJ-6" value="+ setNama(nama: String): void" style="text;align=left;verticalAlign=top;spacingLeft=4;spacingRight=4;overflow=hidden;rotatable=0;points=[[0,0.5],[1,0.5]];portConstraint=eastwest;" vertex="1" parent="5fcYesd38pWkmHz6zSUJ-1">
          <mxGeometry y="112" width="250" height="26" as="geometry" />
        </mxCell>
        <mxCell id="5fcYesd38pWkmHz6zSUJ-7" value="+ getNomorHp(): String" style="text;align=left;verticalAlign=top;spacingLeft=4;spacingRight=4;overflow=hidden;rotatable=0;points=[[0,0.5],[1,0.5]];portConstraint=eastwest;" vertex="1" parent="5fcYesd38pWkmHz6zSUJ-1">
          <mxGeometry y="138" width="250" height="26" as="geometry" />
        </mxCell>
        <mxCell id="5fcYesd38pWkmHz6zSUJ-8" value="+ setNomorHp(nomorHp: String): void" style="text;align=left;verticalAlign=top;spacingLeft=4;spacingRight=4;overflow=hidden;rotatable=0;points=[[0,0.5],[1,0.5]];portConstraint=eastwest;" vertex="1" parent="5fcYesd38pWkmHz6zSUJ-1">
          <mxGeometry y="164" width="250" height="26" as="geometry" />
        </mxCell>
        <mxCell id="5fcYesd38pWkmHz6zSUJ-9" value="Customer" style="swimlane;fontStyle=1;align=center;verticalAlign=top;childLayout=stackLayout;horizontal=1;startSize=26;horizontalStack=0;resizeParent=1;resizeLast=0;collapsible=1;marginBottom=0;rounded=0;shadow=0;strokeWidth=1;" vertex="1" parent="1">
          <mxGeometry x="80" y="650" width="250" height="112" as="geometry">
            <mxRectangle x="230" y="140" width="160" height="26" as="alternateBounds" />
          </mxGeometry>
        </mxCell>
        <mxCell id="5fcYesd38pWkmHz6zSUJ-10" value="- saldo: double" style="text;align=left;verticalAlign=top;spacingLeft=4;spacingRight=4;overflow=hidden;rotatable=0;points=[[0,0.5],[1,0.5]];portConstraint=eastwest;" vertex="1" parent="5fcYesd38pWkmHz6zSUJ-9">
          <mxGeometry y="26" width="250" height="26" as="geometry" />
        </mxCell>
        <mxCell id="5fcYesd38pWkmHz6zSUJ-12" value="" style="line;html=1;strokeWidth=1;align=left;verticalAlign=middle;spacingTop=-1;spacingLeft=3;spacingRight=3;rotatable=0;labelPosition=right;points=[];portConstraint=eastwest;" vertex="1" parent="5fcYesd38pWkmHz6zSUJ-9">
          <mxGeometry y="52" width="250" height="8" as="geometry" />
        </mxCell>
        <mxCell id="5fcYesd38pWkmHz6zSUJ-13" value="+ pesanMenu(m: Menu): void" style="text;align=left;verticalAlign=top;spacingLeft=4;spacingRight=4;overflow=hidden;rotatable=0;points=[[0,0.5],[1,0.5]];portConstraint=eastwest;" vertex="1" parent="5fcYesd38pWkmHz6zSUJ-9">
          <mxGeometry y="60" width="250" height="26" as="geometry" />
        </mxCell>
        <mxCell id="5fcYesd38pWkmHz6zSUJ-14" value="+ topUpSaldo(n: double): void" style="text;align=left;verticalAlign=top;spacingLeft=4;spacingRight=4;overflow=hidden;rotatable=0;points=[[0,0.5],[1,0.5]];portConstraint=eastwest;" vertex="1" parent="5fcYesd38pWkmHz6zSUJ-9">
          <mxGeometry y="86" width="250" height="26" as="geometry" />
        </mxCell>
        <mxCell id="5fcYesd38pWkmHz6zSUJ-17" value="Barista" style="swimlane;fontStyle=1;align=center;verticalAlign=top;childLayout=stackLayout;horizontal=1;startSize=26;horizontalStack=0;resizeParent=1;resizeLast=0;collapsible=1;marginBottom=0;rounded=0;shadow=0;strokeWidth=1;" vertex="1" parent="1">
          <mxGeometry x="350" y="650" width="250" height="112" as="geometry">
            <mxRectangle x="230" y="140" width="160" height="26" as="alternateBounds" />
          </mxGeometry>
        </mxCell>
        <mxCell id="5fcYesd38pWkmHz6zSUJ-18" value="- shift: String" style="text;align=left;verticalAlign=top;spacingLeft=4;spacingRight=4;overflow=hidden;rotatable=0;points=[[0,0.5],[1,0.5]];portConstraint=eastwest;" vertex="1" parent="5fcYesd38pWkmHz6zSUJ-17">
          <mxGeometry y="26" width="250" height="26" as="geometry" />
        </mxCell>
        <mxCell id="5fcYesd38pWkmHz6zSUJ-19" value="" style="line;html=1;strokeWidth=1;align=left;verticalAlign=middle;spacingTop=-1;spacingLeft=3;spacingRight=3;rotatable=0;labelPosition=right;points=[];portConstraint=eastwest;" vertex="1" parent="5fcYesd38pWkmHz6zSUJ-17">
          <mxGeometry y="52" width="250" height="8" as="geometry" />
        </mxCell>
        <mxCell id="5fcYesd38pWkmHz6zSUJ-20" value="+ buatPesanan(p: Pesanan): void" style="text;align=left;verticalAlign=top;spacingLeft=4;spacingRight=4;overflow=hidden;rotatable=0;points=[[0,0.5],[1,0.5]];portConstraint=eastwest;" vertex="1" parent="5fcYesd38pWkmHz6zSUJ-17">
          <mxGeometry y="60" width="250" height="26" as="geometry" />
        </mxCell>
        <mxCell id="5fcYesd38pWkmHz6zSUJ-21" value="+ catatPesanan(p: Pesanan): void" style="text;align=left;verticalAlign=top;spacingLeft=4;spacingRight=4;overflow=hidden;rotatable=0;points=[[0,0.5],[1,0.5]];portConstraint=eastwest;" vertex="1" parent="5fcYesd38pWkmHz6zSUJ-17">
          <mxGeometry y="86" width="250" height="26" as="geometry" />
        </mxCell>
        <mxCell id="5fcYesd38pWkmHz6zSUJ-22" value="Pesanan" style="swimlane;fontStyle=1;align=center;verticalAlign=top;childLayout=stackLayout;horizontal=1;startSize=26;horizontalStack=0;resizeParent=1;resizeLast=0;collapsible=1;marginBottom=0;rounded=0;shadow=0;strokeWidth=1;" vertex="1" parent="1">
          <mxGeometry x="100" y="820" width="250" height="138" as="geometry">
            <mxRectangle x="230" y="140" width="160" height="26" as="alternateBounds" />
          </mxGeometry>
        </mxCell>
        <mxCell id="5fcYesd38pWkmHz6zSUJ-23" value="- idPesanan: String" style="text;align=left;verticalAlign=top;spacingLeft=4;spacingRight=4;overflow=hidden;rotatable=0;points=[[0,0.5],[1,0.5]];portConstraint=eastwest;" vertex="1" parent="5fcYesd38pWkmHz6zSUJ-22">
          <mxGeometry y="26" width="250" height="26" as="geometry" />
        </mxCell>
        <mxCell id="5fcYesd38pWkmHz6zSUJ-25" value="- status: String" style="text;align=left;verticalAlign=top;spacingLeft=4;spacingRight=4;overflow=hidden;rotatable=0;points=[[0,0.5],[1,0.5]];portConstraint=eastwest;" vertex="1" parent="5fcYesd38pWkmHz6zSUJ-22">
          <mxGeometry y="52" width="250" height="26" as="geometry" />
        </mxCell>
        <mxCell id="5fcYesd38pWkmHz6zSUJ-24" value="" style="line;html=1;strokeWidth=1;align=left;verticalAlign=middle;spacingTop=-1;spacingLeft=3;spacingRight=3;rotatable=0;labelPosition=right;points=[];portConstraint=eastwest;" vertex="1" parent="5fcYesd38pWkmHz6zSUJ-22">
          <mxGeometry y="78" width="250" height="8" as="geometry" />
        </mxCell>
        <mxCell id="5fcYesd38pWkmHz6zSUJ-26" value="+ ubahStatus(s: String): void" style="text;align=left;verticalAlign=top;spacingLeft=4;spacingRight=4;overflow=hidden;rotatable=0;points=[[0,0.5],[1,0.5]];portConstraint=eastwest;" vertex="1" parent="5fcYesd38pWkmHz6zSUJ-22">
          <mxGeometry y="86" width="250" height="26" as="geometry" />
        </mxCell>
        <mxCell id="5fcYesd38pWkmHz6zSUJ-27" value="+ getDetail: void" style="text;align=left;verticalAlign=top;spacingLeft=4;spacingRight=4;overflow=hidden;rotatable=0;points=[[0,0.5],[1,0.5]];portConstraint=eastwest;" vertex="1" parent="5fcYesd38pWkmHz6zSUJ-22">
          <mxGeometry y="112" width="250" height="26" as="geometry" />
        </mxCell>
        <mxCell id="5fcYesd38pWkmHz6zSUJ-28" value="Menu" style="swimlane;fontStyle=1;align=center;verticalAlign=top;childLayout=stackLayout;horizontal=1;startSize=26;horizontalStack=0;resizeParent=1;resizeLast=0;collapsible=1;marginBottom=0;rounded=0;shadow=0;strokeWidth=1;" vertex="1" parent="1">
          <mxGeometry x="650" y="830" width="250" height="138" as="geometry">
            <mxRectangle x="230" y="140" width="160" height="26" as="alternateBounds" />
          </mxGeometry>
        </mxCell>
        <mxCell id="5fcYesd38pWkmHz6zSUJ-29" value="- namaMenu: String" style="text;align=left;verticalAlign=top;spacingLeft=4;spacingRight=4;overflow=hidden;rotatable=0;points=[[0,0.5],[1,0.5]];portConstraint=eastwest;" vertex="1" parent="5fcYesd38pWkmHz6zSUJ-28">
          <mxGeometry y="26" width="250" height="26" as="geometry" />
        </mxCell>
        <mxCell id="5fcYesd38pWkmHz6zSUJ-30" value="- harga: double" style="text;align=left;verticalAlign=top;spacingLeft=4;spacingRight=4;overflow=hidden;rotatable=0;points=[[0,0.5],[1,0.5]];portConstraint=eastwest;" vertex="1" parent="5fcYesd38pWkmHz6zSUJ-28">
          <mxGeometry y="52" width="250" height="26" as="geometry" />
        </mxCell>
        <mxCell id="5fcYesd38pWkmHz6zSUJ-31" value="" style="line;html=1;strokeWidth=1;align=left;verticalAlign=middle;spacingTop=-1;spacingLeft=3;spacingRight=3;rotatable=0;labelPosition=right;points=[];portConstraint=eastwest;" vertex="1" parent="5fcYesd38pWkmHz6zSUJ-28">
          <mxGeometry y="78" width="250" height="8" as="geometry" />
        </mxCell>
        <mxCell id="5fcYesd38pWkmHz6zSUJ-32" value="+ getInfo: void" style="text;align=left;verticalAlign=top;spacingLeft=4;spacingRight=4;overflow=hidden;rotatable=0;points=[[0,0.5],[1,0.5]];portConstraint=eastwest;" vertex="1" parent="5fcYesd38pWkmHz6zSUJ-28">
          <mxGeometry y="86" width="250" height="26" as="geometry" />
        </mxCell>
        <mxCell id="5fcYesd38pWkmHz6zSUJ-33" value="+ getHarga: double" style="text;align=left;verticalAlign=top;spacingLeft=4;spacingRight=4;overflow=hidden;rotatable=0;points=[[0,0.5],[1,0.5]];portConstraint=eastwest;" vertex="1" parent="5fcYesd38pWkmHz6zSUJ-28">
          <mxGeometry y="112" width="250" height="26" as="geometry" />
        </mxCell>
        <mxCell id="5fcYesd38pWkmHz6zSUJ-34" value="Cafe" style="swimlane;fontStyle=1;align=center;verticalAlign=top;childLayout=stackLayout;horizontal=1;startSize=26;horizontalStack=0;resizeParent=1;resizeLast=0;collapsible=1;marginBottom=0;rounded=0;shadow=0;strokeWidth=1;" vertex="1" parent="1">
          <mxGeometry x="650" y="620" width="250" height="164" as="geometry">
            <mxRectangle x="230" y="140" width="160" height="26" as="alternateBounds" />
          </mxGeometry>
        </mxCell>
        <mxCell id="5fcYesd38pWkmHz6zSUJ-35" value="- namaCafe: String" style="text;align=left;verticalAlign=top;spacingLeft=4;spacingRight=4;overflow=hidden;rotatable=0;points=[[0,0.5],[1,0.5]];portConstraint=eastwest;" vertex="1" parent="5fcYesd38pWkmHz6zSUJ-34">
          <mxGeometry y="26" width="250" height="26" as="geometry" />
        </mxCell>
        <mxCell id="5fcYesd38pWkmHz6zSUJ-36" value="- daftarMenu: List&lt;Menu&gt;" style="text;align=left;verticalAlign=top;spacingLeft=4;spacingRight=4;overflow=hidden;rotatable=0;points=[[0,0.5],[1,0.5]];portConstraint=eastwest;" vertex="1" parent="5fcYesd38pWkmHz6zSUJ-34">
          <mxGeometry y="52" width="250" height="26" as="geometry" />
        </mxCell>
        <mxCell id="5fcYesd38pWkmHz6zSUJ-37" value="" style="line;html=1;strokeWidth=1;align=left;verticalAlign=middle;spacingTop=-1;spacingLeft=3;spacingRight=3;rotatable=0;labelPosition=right;points=[];portConstraint=eastwest;" vertex="1" parent="5fcYesd38pWkmHz6zSUJ-34">
          <mxGeometry y="78" width="250" height="8" as="geometry" />
        </mxCell>
        <mxCell id="5fcYesd38pWkmHz6zSUJ-38" value="+ tambahMenu(m: Menu)" style="text;align=left;verticalAlign=top;spacingLeft=4;spacingRight=4;overflow=hidden;rotatable=0;points=[[0,0.5],[1,0.5]];portConstraint=eastwest;" vertex="1" parent="5fcYesd38pWkmHz6zSUJ-34">
          <mxGeometry y="86" width="250" height="26" as="geometry" />
        </mxCell>
        <mxCell id="5fcYesd38pWkmHz6zSUJ-39" value="+ hapusMenu(m: Menu)" style="text;align=left;verticalAlign=top;spacingLeft=4;spacingRight=4;overflow=hidden;rotatable=0;points=[[0,0.5],[1,0.5]];portConstraint=eastwest;" vertex="1" parent="5fcYesd38pWkmHz6zSUJ-34">
          <mxGeometry y="112" width="250" height="26" as="geometry" />
        </mxCell>
        <mxCell id="5fcYesd38pWkmHz6zSUJ-40" value="+ tampilkanMenu: void" style="text;align=left;verticalAlign=top;spacingLeft=4;spacingRight=4;overflow=hidden;rotatable=0;points=[[0,0.5],[1,0.5]];portConstraint=eastwest;" vertex="1" parent="5fcYesd38pWkmHz6zSUJ-34">
          <mxGeometry y="138" width="250" height="26" as="geometry" />
        </mxCell>
        <mxCell id="5fcYesd38pWkmHz6zSUJ-41" value="Extends" style="endArrow=block;endSize=16;endFill=0;html=1;rounded=0;exitX=0.52;exitY=-0.021;exitDx=0;exitDy=0;exitPerimeter=0;" edge="1" parent="1" source="5fcYesd38pWkmHz6zSUJ-9">
          <mxGeometry width="160" relative="1" as="geometry">
            <mxPoint x="310" y="530" as="sourcePoint" />
            <mxPoint x="342" y="562" as="targetPoint" />
            <Array as="points">
              <mxPoint x="210" y="600" />
              <mxPoint x="342" y="600" />
            </Array>
          </mxGeometry>
        </mxCell>
        <mxCell id="5fcYesd38pWkmHz6zSUJ-42" value="Extends" style="endArrow=block;endSize=16;endFill=0;html=1;rounded=0;exitX=0.436;exitY=-0.014;exitDx=0;exitDy=0;exitPerimeter=0;" edge="1" parent="1" source="5fcYesd38pWkmHz6zSUJ-17">
          <mxGeometry width="160" relative="1" as="geometry">
            <mxPoint x="240" y="646" as="sourcePoint" />
            <mxPoint x="372" y="560" as="targetPoint" />
            <Array as="points">
              <mxPoint x="460" y="590" />
              <mxPoint x="372" y="590" />
            </Array>
          </mxGeometry>
        </mxCell>
        <mxCell id="5fcYesd38pWkmHz6zSUJ-43" value="" style="endArrow=diamondThin;endFill=0;endSize=24;html=1;rounded=0;entryX=0.509;entryY=0.987;entryDx=0;entryDy=0;entryPerimeter=0;exitX=0.511;exitY=0.002;exitDx=0;exitDy=0;exitPerimeter=0;" edge="1" parent="1" source="5fcYesd38pWkmHz6zSUJ-28" target="5fcYesd38pWkmHz6zSUJ-40">
          <mxGeometry width="160" relative="1" as="geometry">
            <mxPoint x="537" y="1040" as="sourcePoint" />
            <mxPoint x="470" y="810" as="targetPoint" />
          </mxGeometry>
        </mxCell>
        <mxCell id="5fcYesd38pWkmHz6zSUJ-45" value="" style="endArrow=open;endFill=1;endSize=12;html=1;rounded=0;exitX=1;exitY=1;exitDx=0;exitDy=0;exitPerimeter=0;entryX=0;entryY=0.154;entryDx=0;entryDy=0;entryPerimeter=0;" edge="1" parent="1" source="5fcYesd38pWkmHz6zSUJ-19" target="5fcYesd38pWkmHz6zSUJ-38">
          <mxGeometry width="160" relative="1" as="geometry">
            <mxPoint x="380" y="830" as="sourcePoint" />
            <mxPoint x="540" y="830" as="targetPoint" />
          </mxGeometry>
        </mxCell>
        <mxCell id="5fcYesd38pWkmHz6zSUJ-46" value="" style="endArrow=open;endFill=1;endSize=12;html=1;rounded=0;exitX=0.48;exitY=1.192;exitDx=0;exitDy=0;exitPerimeter=0;" edge="1" parent="1" source="5fcYesd38pWkmHz6zSUJ-21">
          <mxGeometry width="160" relative="1" as="geometry">
            <mxPoint x="380" y="660" as="sourcePoint" />
            <mxPoint x="649" y="900" as="targetPoint" />
            <Array as="points">
              <mxPoint x="470" y="900" />
            </Array>
          </mxGeometry>
        </mxCell>
        <mxCell id="5fcYesd38pWkmHz6zSUJ-47" value="" style="endArrow=open;endFill=1;endSize=12;html=1;rounded=0;exitX=0.515;exitY=1.04;exitDx=0;exitDy=0;exitPerimeter=0;entryX=0;entryY=0.692;entryDx=0;entryDy=0;entryPerimeter=0;" edge="1" parent="1" source="5fcYesd38pWkmHz6zSUJ-14" target="5fcYesd38pWkmHz6zSUJ-33">
          <mxGeometry width="160" relative="1" as="geometry">
            <mxPoint x="212.9999999999999" y="764.0020000000002" as="sourcePoint" />
            <mxPoint x="640" y="960" as="targetPoint" />
            <Array as="points">
              <mxPoint x="209" y="800" />
              <mxPoint x="40" y="800" />
              <mxPoint x="40" y="990" />
              <mxPoint x="550" y="990" />
              <mxPoint x="550" y="960" />
            </Array>
          </mxGeometry>
        </mxCell>
        <mxCell id="5fcYesd38pWkmHz6zSUJ-48" value="" style="endArrow=open;endFill=1;endSize=12;html=1;rounded=0;exitX=0.205;exitY=1.051;exitDx=0;exitDy=0;exitPerimeter=0;entryX=1;entryY=0.5;entryDx=0;entryDy=0;" edge="1" parent="1" target="5fcYesd38pWkmHz6zSUJ-23">
          <mxGeometry width="160" relative="1" as="geometry">
            <mxPoint x="401.25" y="762.326" as="sourcePoint" />
            <mxPoint x="350" y="858" as="targetPoint" />
            <Array as="points">
              <mxPoint x="400" y="859" />
            </Array>
          </mxGeometry>
        </mxCell>
        <mxCell id="5fcYesd38pWkmHz6zSUJ-49" value="" style="endArrow=open;endFill=1;endSize=12;html=1;rounded=0;exitX=0.564;exitY=-0.007;exitDx=0;exitDy=0;exitPerimeter=0;entryX=0.646;entryY=1.046;entryDx=0;entryDy=0;entryPerimeter=0;" edge="1" parent="1" source="5fcYesd38pWkmHz6zSUJ-22" target="5fcYesd38pWkmHz6zSUJ-14">
          <mxGeometry width="160" relative="1" as="geometry">
            <mxPoint x="250" y="800" as="sourcePoint" />
            <mxPoint x="410" y="800" as="targetPoint" />
          </mxGeometry>
        </mxCell>
        <mxCell id="5fcYesd38pWkmHz6zSUJ-50" value="" style="endArrow=open;endFill=1;endSize=12;html=1;rounded=0;exitX=1;exitY=0.5;exitDx=0;exitDy=0;entryX=0;entryY=0.154;entryDx=0;entryDy=0;entryPerimeter=0;" edge="1" parent="1" source="5fcYesd38pWkmHz6zSUJ-26" target="5fcYesd38pWkmHz6zSUJ-32">
          <mxGeometry width="160" relative="1" as="geometry">
            <mxPoint x="250" y="800" as="sourcePoint" />
            <mxPoint x="590" y="910" as="targetPoint" />
          </mxGeometry>
        </mxCell>
      </root>
    </mxGraphModel>
  </diagram>
</mxfile>
